<svg id="visual" viewBox="0 0 1080 1920" width="1080" height="1920" xmlns="http://www.w3.org/2000/svg" xmlns:xlink="http://www.w3.org/1999/xlink" version="1.1"><rect x="0" y="0" width="1080" height="1920" fill="#3e756e"></rect><path d="M0 1539L20 1554.2C40 1569.3 80 1599.7 120 1632C160 1664.3 200 1698.7 240 1715.2C280 1731.7 320 1730.3 360 1698.5C400 1666.7 440 1604.3 480 1579C520 1553.7 560 1565.3 600 1592.3C640 1619.3 680 1661.7 720 1666.5C760 1671.3 800 1638.7 840 1633.5C880 1628.3 920 1650.7 960 1649.7C1000 1648.7 1040 1624.3 1060 1612.2L1080 1600L1080 1921L1060 1921C1040 1921 1000 1921 960 1921C920 1921 880 1921 840 1921C800 1921 760 1921 720 1921C680 1921 640 1921 600 1921C560 1921 520 1921 480 1921C440 1921 400 1921 360 1921C320 1921 280 1921 240 1921C200 1921 160 1921 120 1921C80 1921 40 1921 20 1921L0 1921Z" fill="#ffffff" stroke-linecap="round" stroke-linejoin="miter"></path></svg>