<svg id="visual" viewBox="0 0 1920 1080" width="1920" height="1080" xmlns="http://www.w3.org/2000/svg" xmlns:xlink="http://www.w3.org/1999/xlink" version="1.1"><rect x="0" y="0" width="1920" height="1080" fill="#3e756e"></rect><path d="M0 707L40 739.8C80 772.7 160 838.3 240 864.2C320 890 400 876 480 865.2C560 854.3 640 846.7 720 819.5C800 792.3 880 745.7 960 752.2C1040 758.7 1120 818.3 1200 824.5C1280 830.7 1360 783.3 1440 785C1520 786.7 1600 837.3 1680 871.7C1760 906 1840 924 1880 933L1920 942L1920 1081L1880 1081C1840 1081 1760 1081 1680 1081C1600 1081 1520 1081 1440 1081C1360 1081 1280 1081 1200 1081C1120 1081 1040 1081 960 1081C880 1081 800 1081 720 1081C640 1081 560 1081 480 1081C400 1081 320 1081 240 1081C160 1081 80 1081 40 1081L0 1081Z" fill="#ffffff" stroke-linecap="round" stroke-linejoin="miter"></path></svg>