<svg id="visual" viewBox="0 0 1920 1080" width="1920" height="1080" xmlns="http://www.w3.org/2000/svg" xmlns:xlink="http://www.w3.org/1999/xlink" version="1.1"><rect x="0" y="0" width="1920" height="1080" fill="#41cc8d"></rect><path d="M0 914L32 875.8C64 837.7 128 761.3 192 765.7C256 770 320 855 384 875.3C448 895.7 512 851.3 576 820.8C640 790.3 704 773.7 768 780.2C832 786.7 896 816.3 960 822.5C1024 828.7 1088 811.3 1152 786C1216 760.7 1280 727.3 1344 713.7C1408 700 1472 706 1536 741C1600 776 1664 840 1728 847.5C1792 855 1856 806 1888 781.5L1920 757L1920 1081L1888 1081C1856 1081 1792 1081 1728 1081C1664 1081 1600 1081 1536 1081C1472 1081 1408 1081 1344 1081C1280 1081 1216 1081 1152 1081C1088 1081 1024 1081 960 1081C896 1081 832 1081 768 1081C704 1081 640 1081 576 1081C512 1081 448 1081 384 1081C320 1081 256 1081 192 1081C128 1081 64 1081 32 1081L0 1081Z" fill="#FFFFFF" stroke-linecap="round" stroke-linejoin="miter"></path></svg>