<svg id="visual" viewBox="0 0 1080 1920" width="1080" height="1920" xmlns="http://www.w3.org/2000/svg" xmlns:xlink="http://www.w3.org/1999/xlink" version="1.1"><path d="M0 78L22.5 81.2C45 84.3 90 90.7 135 97C180 103.3 225 109.7 270 122.5C315 135.3 360 154.7 405 157.8C450 161 495 148 540 135.2C585 122.3 630 109.7 675 106.5C720 103.3 765 109.7 810 106.5C855 103.3 900 90.7 945 100.3C990 110 1035 142 1057.5 158L1080 174L1080 0L1057.5 0C1035 0 990 0 945 0C900 0 855 0 810 0C765 0 720 0 675 0C630 0 585 0 540 0C495 0 450 0 405 0C360 0 315 0 270 0C225 0 180 0 135 0C90 0 45 0 22.5 0L0 0Z" fill="#2d5651"></path><path d="M0 308L22.5 304.8C45 301.7 90 295.3 135 282.5C180 269.7 225 250.3 270 263.2C315 276 360 321 405 337C450 353 495 340 540 327.2C585 314.3 630 301.7 675 301.7C720 301.7 765 314.3 810 304.7C855 295 900 263 945 266.3C990 269.7 1035 308.3 1057.5 327.7L1080 347L1080 172L1057.5 156C1035 140 990 108 945 98.3C900 88.7 855 101.3 810 104.5C765 107.7 720 101.3 675 104.5C630 107.7 585 120.3 540 133.2C495 146 450 159 405 155.8C360 152.7 315 133.3 270 120.5C225 107.7 180 101.3 135 95C90 88.7 45 82.3 22.5 79.2L0 76Z" fill="#396c66"></path><path d="M0 673L22.5 673C45 673 90 673 135 644.2C180 615.3 225 557.7 270 612C315 666.3 360 832.7 405 855.2C450 877.7 495 756.3 540 692.3C585 628.3 630 621.7 675 647.2C720 672.7 765 730.3 810 733.7C855 737 900 686 945 695.7C990 705.3 1035 775.7 1057.5 810.8L1080 846L1080 345L1057.5 325.7C1035 306.3 990 267.7 945 264.3C900 261 855 293 810 302.7C765 312.3 720 299.7 675 299.7C630 299.7 585 312.3 540 325.2C495 338 450 351 405 335C360 319 315 274 270 261.2C225 248.3 180 267.7 135 280.5C90 293.3 45 299.7 22.5 302.8L0 306Z" fill="#50837c"></path><path d="M0 1287L22.5 1274.3C45 1261.7 90 1236.3 135 1217.2C180 1198 225 1185 270 1207.3C315 1229.7 360 1287.3 405 1281C450 1274.7 495 1204.3 540 1159.5C585 1114.7 630 1095.3 675 1104.8C720 1114.3 765 1152.7 810 1159.2C855 1165.7 900 1140.3 945 1124.3C990 1108.3 1035 1101.7 1057.5 1098.3L1080 1095L1080 844L1057.5 808.8C1035 773.7 990 703.3 945 693.7C900 684 855 735 810 731.7C765 728.3 720 670.7 675 645.2C630 619.7 585 626.3 540 690.3C495 754.3 450 875.7 405 853.2C360 830.7 315 664.3 270 610C225 555.7 180 613.3 135 642.2C90 671 45 671 22.5 671L0 671Z" fill="#689690"></path><path d="M0 1460L22.5 1444C45 1428 90 1396 135 1396C180 1396 225 1428 270 1453.7C315 1479.3 360 1498.7 405 1482.7C450 1466.7 495 1415.3 540 1402.5C585 1389.7 630 1415.3 675 1421.8C720 1428.3 765 1415.7 810 1412.5C855 1409.3 900 1415.7 945 1422C990 1428.3 1035 1434.7 1057.5 1437.8L1080 1441L1080 1093L1057.5 1096.3C1035 1099.7 990 1106.3 945 1122.3C900 1138.3 855 1163.7 810 1157.2C765 1150.7 720 1112.3 675 1102.8C630 1093.3 585 1112.7 540 1157.5C495 1202.3 450 1272.7 405 1279C360 1285.3 315 1227.7 270 1205.3C225 1183 180 1196 135 1215.2C90 1234.3 45 1259.7 22.5 1272.3L0 1285Z" fill="#689690"></path><path d="M0 1575L22.5 1571.8C45 1568.7 90 1562.3 135 1565.7C180 1569 225 1582 270 1594.8C315 1607.7 360 1620.3 405 1610.7C450 1601 495 1569 540 1559.3C585 1549.7 630 1562.3 675 1559.2C720 1556 765 1537 810 1537C855 1537 900 1556 945 1565.5C990 1575 1035 1575 1057.5 1575L1080 1575L1080 1439L1057.5 1435.8C1035 1432.7 990 1426.3 945 1420C900 1413.7 855 1407.3 810 1410.5C765 1413.7 720 1426.3 675 1419.8C630 1413.3 585 1387.7 540 1400.5C495 1413.3 450 1464.7 405 1480.7C360 1496.7 315 1477.3 270 1451.7C225 1426 180 1394 135 1394C90 1394 45 1426 22.5 1442L0 1458Z" fill="#50837c"></path><path d="M0 1806L22.5 1802.8C45 1799.7 90 1793.3 135 1786.8C180 1780.3 225 1773.7 270 1773.7C315 1773.7 360 1780.3 405 1783.7C450 1787 495 1787 540 1777.3C585 1767.7 630 1748.3 675 1745C720 1741.7 765 1754.3 810 1754.3C855 1754.3 900 1741.7 945 1745C990 1748.3 1035 1767.7 1057.5 1777.3L1080 1787L1080 1573L1057.5 1573C1035 1573 990 1573 945 1563.5C900 1554 855 1535 810 1535C765 1535 720 1554 675 1557.2C630 1560.3 585 1547.7 540 1557.3C495 1567 450 1599 405 1608.7C360 1618.3 315 1605.7 270 1592.8C225 1580 180 1567 135 1563.7C90 1560.3 45 1566.7 22.5 1569.8L0 1573Z" fill="#396c66"></path><path d="M0 1921L22.5 1921C45 1921 90 1921 135 1921C180 1921 225 1921 270 1921C315 1921 360 1921 405 1921C450 1921 495 1921 540 1921C585 1921 630 1921 675 1921C720 1921 765 1921 810 1921C855 1921 900 1921 945 1921C990 1921 1035 1921 1057.5 1921L1080 1921L1080 1785L1057.5 1775.3C1035 1765.7 990 1746.3 945 1743C900 1739.7 855 1752.3 810 1752.3C765 1752.3 720 1739.7 675 1743C630 1746.3 585 1765.7 540 1775.3C495 1785 450 1785 405 1781.7C360 1778.3 315 1771.7 270 1771.7C225 1771.7 180 1778.3 135 1784.8C90 1791.3 45 1797.7 22.5 1800.8L0 1804Z" fill="#2d5651"></path></svg>