<svg id="visual" viewBox="0 0 3000 1080" width="3000" height="1080" xmlns="http://www.w3.org/2000/svg" xmlns:xlink="http://www.w3.org/1999/xlink" version="1.1"><rect x="0" y="0" width="3000" height="1080" fill="#3ab973"></rect><path d="M0 682L71.5 683.5C143 685 286 688 428.8 688.8C571.7 689.7 714.3 688.3 857.2 684.2C1000 680 1143 673 1285.8 688.7C1428.7 704.3 1571.3 742.7 1714.2 750.7C1857 758.7 2000 736.3 2142.8 729C2285.7 721.7 2428.3 729.3 2571.2 744.3C2714 759.3 2857 781.7 2928.5 792.8L3000 804L3000 1081L2928.5 1081C2857 1081 2714 1081 2571.2 1081C2428.3 1081 2285.7 1081 2142.8 1081C2000 1081 1857 1081 1714.2 1081C1571.3 1081 1428.7 1081 1285.8 1081C1143 1081 1000 1081 857.2 1081C714.3 1081 571.7 1081 428.8 1081C286 1081 143 1081 71.5 1081L0 1081Z" fill="#32a164"></path><path d="M0 788L71.5 783.7C143 779.3 286 770.7 428.8 762.8C571.7 755 714.3 748 857.2 760.2C1000 772.3 1143 803.7 1285.8 812.8C1428.7 822 1571.3 809 1714.2 806.5C1857 804 2000 812 2142.8 798.2C2285.7 784.3 2428.3 748.7 2571.2 755.8C2714 763 2857 813 2928.5 838L3000 863L3000 1081L2928.5 1081C2857 1081 2714 1081 2571.2 1081C2428.3 1081 2285.7 1081 2142.8 1081C2000 1081 1857 1081 1714.2 1081C1571.3 1081 1428.7 1081 1285.8 1081C1143 1081 1000 1081 857.2 1081C714.3 1081 571.7 1081 428.8 1081C286 1081 143 1081 71.5 1081L0 1081Z" fill="#34a767"></path><path d="M0 799L71.5 809.5C143 820 286 841 428.8 840.7C571.7 840.3 714.3 818.7 857.2 827.8C1000 837 1143 877 1285.8 889.7C1428.7 902.3 1571.3 887.7 1714.2 869.7C1857 851.7 2000 830.3 2142.8 830.2C2285.7 830 2428.3 851 2571.2 868.7C2714 886.3 2857 900.7 2928.5 907.8L3000 915L3000 1081L2928.5 1081C2857 1081 2714 1081 2571.2 1081C2428.3 1081 2285.7 1081 2142.8 1081C2000 1081 1857 1081 1714.2 1081C1571.3 1081 1428.7 1081 1285.8 1081C1143 1081 1000 1081 857.2 1081C714.3 1081 571.7 1081 428.8 1081C286 1081 143 1081 71.5 1081L0 1081Z" fill="#36ad6b"></path><path d="M0 961L71.5 946.3C143 931.7 286 902.3 428.8 890.5C571.7 878.7 714.3 884.3 857.2 889.3C1000 894.3 1143 898.7 1285.8 902.7C1428.7 906.7 1571.3 910.3 1714.2 907C1857 903.7 2000 893.3 2142.8 900C2285.7 906.7 2428.3 930.3 2571.2 935.2C2714 940 2857 926 2928.5 919L3000 912L3000 1081L2928.5 1081C2857 1081 2714 1081 2571.2 1081C2428.3 1081 2285.7 1081 2142.8 1081C2000 1081 1857 1081 1714.2 1081C1571.3 1081 1428.7 1081 1285.8 1081C1143 1081 1000 1081 857.2 1081C714.3 1081 571.7 1081 428.8 1081C286 1081 143 1081 71.5 1081L0 1081Z" fill="#38b36f"></path><path d="M0 1004L71.5 1000C143 996 286 988 428.8 982.2C571.7 976.3 714.3 972.7 857.2 972C1000 971.3 1143 973.7 1285.8 982.3C1428.7 991 1571.3 1006 1714.2 1005.5C1857 1005 2000 989 2142.8 976.8C2285.7 964.7 2428.3 956.3 2571.2 958C2714 959.7 2857 971.3 2928.5 977.2L3000 983L3000 1081L2928.5 1081C2857 1081 2714 1081 2571.2 1081C2428.3 1081 2285.7 1081 2142.8 1081C2000 1081 1857 1081 1714.2 1081C1571.3 1081 1428.7 1081 1285.8 1081C1143 1081 1000 1081 857.2 1081C714.3 1081 571.7 1081 428.8 1081C286 1081 143 1081 71.5 1081L0 1081Z" fill="#3ab973"></path></svg>