<svg id="visual" viewBox="0 0 3000 1200" width="3000" height="1200" xmlns="http://www.w3.org/2000/svg" xmlns:xlink="http://www.w3.org/1999/xlink" version="1.1"><rect x="0" y="0" width="3000" height="1200" fill="#3ab973"></rect><path d="M0 800L62.5 789.7C125 779.3 250 758.7 375 758.7C500 758.7 625 779.3 750 784.7C875 790 1000 780 1125 776.5C1250 773 1375 776 1500 763.8C1625 751.7 1750 724.3 1875 720.2C2000 716 2125 735 2250 758.3C2375 781.7 2500 809.3 2625 814.7C2750 820 2875 803 2937.5 794.5L3000 786L3000 1201L2937.5 1201C2875 1201 2750 1201 2625 1201C2500 1201 2375 1201 2250 1201C2125 1201 2000 1201 1875 1201C1750 1201 1625 1201 1500 1201C1375 1201 1250 1201 1125 1201C1000 1201 875 1201 750 1201C625 1201 500 1201 375 1201C250 1201 125 1201 62.5 1201L0 1201Z" fill="#32a164"></path><path d="M0 940L62.5 921C125 902 250 864 375 856.3C500 848.7 625 871.3 750 869.2C875 867 1000 840 1125 844.2C1250 848.3 1375 883.7 1500 893.2C1625 902.7 1750 886.3 1875 867.2C2000 848 2125 826 2250 817.3C2375 808.7 2500 813.3 2625 809.8C2750 806.3 2875 794.7 2937.5 788.8L3000 783L3000 1201L2937.5 1201C2875 1201 2750 1201 2625 1201C2500 1201 2375 1201 2250 1201C2125 1201 2000 1201 1875 1201C1750 1201 1625 1201 1500 1201C1375 1201 1250 1201 1125 1201C1000 1201 875 1201 750 1201C625 1201 500 1201 375 1201C250 1201 125 1201 62.5 1201L0 1201Z" fill="#359862"></path><path d="M0 979L62.5 977.7C125 976.3 250 973.7 375 964.8C500 956 625 941 750 927.2C875 913.3 1000 900.7 1125 903.5C1250 906.3 1375 924.7 1500 938.7C1625 952.7 1750 962.3 1875 959.8C2000 957.3 2125 942.7 2250 935.8C2375 929 2500 930 2625 926.2C2750 922.3 2875 913.7 2937.5 909.3L3000 905L3000 1201L2937.5 1201C2875 1201 2750 1201 2625 1201C2500 1201 2375 1201 2250 1201C2125 1201 2000 1201 1875 1201C1750 1201 1625 1201 1500 1201C1375 1201 1250 1201 1125 1201C1000 1201 875 1201 750 1201C625 1201 500 1201 375 1201C250 1201 125 1201 62.5 1201L0 1201Z" fill="#388f5f"></path><path d="M0 927L62.5 930.7C125 934.3 250 941.7 375 954.2C500 966.7 625 984.3 750 997.5C875 1010.7 1000 1019.3 1125 1019.8C1250 1020.3 1375 1012.7 1500 1012.3C1625 1012 1750 1019 1875 1018.2C2000 1017.3 2125 1008.7 2250 1009.7C2375 1010.7 2500 1021.3 2625 1011.3C2750 1001.3 2875 970.7 2937.5 955.3L3000 940L3000 1201L2937.5 1201C2875 1201 2750 1201 2625 1201C2500 1201 2375 1201 2250 1201C2125 1201 2000 1201 1875 1201C1750 1201 1625 1201 1500 1201C1375 1201 1250 1201 1125 1201C1000 1201 875 1201 750 1201C625 1201 500 1201 375 1201C250 1201 125 1201 62.5 1201L0 1201Z" fill="#3a875d"></path><path d="M0 1038L62.5 1037.8C125 1037.7 250 1037.3 375 1038.8C500 1040.3 625 1043.7 750 1052.2C875 1060.7 1000 1074.3 1125 1074C1250 1073.7 1375 1059.3 1500 1044C1625 1028.7 1750 1012.3 1875 1021.8C2000 1031.3 2125 1066.7 2250 1075C2375 1083.3 2500 1064.7 2625 1053.8C2750 1043 2875 1040 2937.5 1038.5L3000 1037L3000 1201L2937.5 1201C2875 1201 2750 1201 2625 1201C2500 1201 2375 1201 2250 1201C2125 1201 2000 1201 1875 1201C1750 1201 1625 1201 1500 1201C1375 1201 1250 1201 1125 1201C1000 1201 875 1201 750 1201C625 1201 500 1201 375 1201C250 1201 125 1201 62.5 1201L0 1201Z" fill="#3c7e5a"></path><path d="M0 1116L62.5 1108.7C125 1101.3 250 1086.7 375 1085.3C500 1084 625 1096 750 1107.7C875 1119.3 1000 1130.7 1125 1135.3C1250 1140 1375 1138 1500 1129.7C1625 1121.3 1750 1106.7 1875 1098.2C2000 1089.7 2125 1087.3 2250 1092C2375 1096.7 2500 1108.3 2625 1112.2C2750 1116 2875 1112 2937.5 1110L3000 1108L3000 1201L2937.5 1201C2875 1201 2750 1201 2625 1201C2500 1201 2375 1201 2250 1201C2125 1201 2000 1201 1875 1201C1750 1201 1625 1201 1500 1201C1375 1201 1250 1201 1125 1201C1000 1201 875 1201 750 1201C625 1201 500 1201 375 1201C250 1201 125 1201 62.5 1201L0 1201Z" fill="#3e7557"></path></svg>