<svg id="visual" viewBox="0 0 1920 1080" width="1920" height="1080" xmlns="http://www.w3.org/2000/svg" xmlns:xlink="http://www.w3.org/1999/xlink" version="1.1"><path d="M0 44L40 45.8C80 47.7 160 51.3 240 55C320 58.7 400 62.3 480 69.5C560 76.7 640 87.3 720 89.2C800 91 880 84 960 76.8C1040 69.7 1120 62.3 1200 60.5C1280 58.7 1360 62.3 1440 60.5C1520 58.7 1600 51.3 1680 56.7C1760 62 1840 80 1880 89L1920 98L1920 0L1880 0C1840 0 1760 0 1680 0C1600 0 1520 0 1440 0C1360 0 1280 0 1200 0C1120 0 1040 0 960 0C880 0 800 0 720 0C640 0 560 0 480 0C400 0 320 0 240 0C160 0 80 0 40 0L0 0Z" fill="#2d5651"></path><path d="M0 174L40 172.2C80 170.3 160 166.7 240 159.5C320 152.3 400 141.7 480 148.8C560 156 640 181 720 190C800 199 880 192 960 184.8C1040 177.7 1120 170.3 1200 170.3C1280 170.3 1360 177.7 1440 172.3C1520 167 1600 149 1680 150.7C1760 152.3 1840 173.7 1880 184.3L1920 195L1920 96L1880 87C1840 78 1760 60 1680 54.7C1600 49.3 1520 56.7 1440 58.5C1360 60.3 1280 56.7 1200 58.5C1120 60.3 1040 67.7 960 74.8C880 82 800 89 720 87.2C640 85.3 560 74.7 480 67.5C400 60.3 320 56.7 240 53C160 49.3 80 45.7 40 43.8L0 42Z" fill="#396c66"></path><path d="M0 379L40 379C80 379 160 379 240 362.8C320 346.7 400 314.3 480 345C560 375.7 640 469.3 720 481.8C800 494.3 880 425.7 960 389.7C1040 353.7 1120 350.3 1200 364.8C1280 379.3 1360 411.7 1440 413.3C1520 415 1600 386 1680 391.3C1760 396.7 1840 436.3 1880 456.2L1920 476L1920 193L1880 182.3C1840 171.7 1760 150.3 1680 148.7C1600 147 1520 165 1440 170.3C1360 175.7 1280 168.3 1200 168.3C1120 168.3 1040 175.7 960 182.8C880 190 800 197 720 188C640 179 560 154 480 146.8C400 139.7 320 150.3 240 157.5C160 164.7 80 168.3 40 170.2L0 172Z" fill="#50837c"></path><path d="M0 725L40 717.7C80 710.3 160 695.7 240 684.8C320 674 400 667 480 679.7C560 692.3 640 724.7 720 721C800 717.3 880 677.7 960 652.5C1040 627.3 1120 616.7 1200 622.2C1280 627.7 1360 649.3 1440 652.8C1520 656.3 1600 641.7 1680 632.7C1760 623.7 1840 620.3 1880 618.7L1920 617L1920 474L1880 454.2C1840 434.3 1760 394.7 1680 389.3C1600 384 1520 413 1440 411.3C1360 409.7 1280 377.3 1200 362.8C1120 348.3 1040 351.7 960 387.7C880 423.7 800 492.3 720 479.8C640 467.3 560 373.7 480 343C400 312.3 320 344.7 240 360.8C160 377 80 377 40 377L0 377Z" fill="#689690"></path><path d="M0 822L40 813C80 804 160 786 240 786C320 786 400 804 480 818.3C560 832.7 640 843.3 720 834.3C800 825.3 880 796.7 960 789.5C1040 782.3 1120 796.7 1200 800.2C1280 803.7 1360 796.3 1440 794.5C1520 792.7 1600 796.3 1680 800C1760 803.7 1840 807.3 1880 809.2L1920 811L1920 615L1880 616.7C1840 618.3 1760 621.7 1680 630.7C1600 639.7 1520 654.3 1440 650.8C1360 647.3 1280 625.7 1200 620.2C1120 614.7 1040 625.3 960 650.5C880 675.7 800 715.3 720 719C640 722.7 560 690.3 480 677.7C400 665 320 672 240 682.8C160 693.7 80 708.3 40 715.7L0 723Z" fill="#689690"></path><path d="M0 887L40 885.2C80 883.3 160 879.7 240 881.3C320 883 400 890 480 897.2C560 904.3 640 911.7 720 906.3C800 901 880 883 960 877.7C1040 872.3 1120 879.7 1200 877.8C1280 876 1360 865 1440 865C1520 865 1600 876 1680 881.5C1760 887 1840 887 1880 887L1920 887L1920 809L1880 807.2C1840 805.3 1760 801.7 1680 798C1600 794.3 1520 790.7 1440 792.5C1360 794.3 1280 801.7 1200 798.2C1120 794.7 1040 780.3 960 787.5C880 794.7 800 823.3 720 832.3C640 841.3 560 830.7 480 816.3C400 802 320 784 240 784C160 784 80 802 40 811L0 820Z" fill="#50837c"></path><path d="M0 1016L40 1014.2C80 1012.3 160 1008.7 240 1005.2C320 1001.7 400 998.3 480 998.3C560 998.3 640 1001.7 720 1003.3C800 1005 880 1005 960 999.7C1040 994.3 1120 983.7 1200 982C1280 980.3 1360 987.7 1440 987.7C1520 987.7 1600 980.3 1680 982C1760 983.7 1840 994.3 1880 999.7L1920 1005L1920 885L1880 885C1840 885 1760 885 1680 879.5C1600 874 1520 863 1440 863C1360 863 1280 874 1200 875.8C1120 877.7 1040 870.3 960 875.7C880 881 800 899 720 904.3C640 909.7 560 902.3 480 895.2C400 888 320 881 240 879.3C160 877.7 80 881.3 40 883.2L0 885Z" fill="#396c66"></path><path d="M0 1081L40 1081C80 1081 160 1081 240 1081C320 1081 400 1081 480 1081C560 1081 640 1081 720 1081C800 1081 880 1081 960 1081C1040 1081 1120 1081 1200 1081C1280 1081 1360 1081 1440 1081C1520 1081 1600 1081 1680 1081C1760 1081 1840 1081 1880 1081L1920 1081L1920 1003L1880 997.7C1840 992.3 1760 981.7 1680 980C1600 978.3 1520 985.7 1440 985.7C1360 985.7 1280 978.3 1200 980C1120 981.7 1040 992.3 960 997.7C880 1003 800 1003 720 1001.3C640 999.7 560 996.3 480 996.3C400 996.3 320 999.7 240 1003.2C160 1006.7 80 1010.3 40 1012.2L0 1014Z" fill="#2d5651"></path></svg>