<svg id="visual" viewBox="0 0 1920 1080" width="1920" height="1080" xmlns="http://www.w3.org/2000/svg" xmlns:xlink="http://www.w3.org/1999/xlink" version="1.1"><rect x="0" y="0" width="1920" height="1080" fill="#3e756e"></rect><path d="M1707 1080L1700 1054.3C1693 1028.7 1679 977.3 1693.5 925.8C1708 874.3 1751 822.7 1750.8 771.2C1750.7 719.7 1707.3 668.3 1685.7 617C1664 565.7 1664 514.3 1671.3 463C1678.7 411.7 1693.3 360.3 1701.2 308.8C1709 257.3 1710 205.7 1723.2 154.2C1736.3 102.7 1761.7 51.3 1774.3 25.7L1787 0L1920 0L1920 25.7C1920 51.3 1920 102.7 1920 154.2C1920 205.7 1920 257.3 1920 308.8C1920 360.3 1920 411.7 1920 463C1920 514.3 1920 565.7 1920 617C1920 668.3 1920 719.7 1920 771.2C1920 822.7 1920 874.3 1920 925.8C1920 977.3 1920 1028.7 1920 1054.3L1920 1080Z" fill="#11211f" stroke-linecap="round" stroke-linejoin="miter"></path></svg>