<svg id="visual" viewBox="0 0 3000 900" width="3000" height="900" xmlns="http://www.w3.org/2000/svg" xmlns:xlink="http://www.w3.org/1999/xlink" version="1.1"><rect x="0" y="0" width="3000" height="900" fill="#3ab973"></rect><path d="M0 600L62.5 592.3C125 584.7 250 569.3 375 569.3C500 569.3 625 584.7 750 588.5C875 592.3 1000 584.7 1125 582C1250 579.3 1375 581.7 1500 572.5C1625 563.3 1750 542.7 1875 539.5C2000 536.3 2125 550.7 2250 568.2C2375 585.7 2500 606.3 2625 610.3C2750 614.3 2875 601.7 2937.5 595.3L3000 589L3000 901L2937.5 901C2875 901 2750 901 2625 901C2500 901 2375 901 2250 901C2125 901 2000 901 1875 901C1750 901 1625 901 1500 901C1375 901 1250 901 1125 901C1000 901 875 901 750 901C625 901 500 901 375 901C250 901 125 901 62.5 901L0 901Z" fill="#32a164"></path><path d="M0 705L62.5 690.7C125 676.3 250 647.7 375 641.8C500 636 625 653 750 651.3C875 649.7 1000 629.3 1125 632.5C1250 635.7 1375 662.3 1500 669.5C1625 676.7 1750 664.3 1875 650C2000 635.7 2125 619.3 2250 612.8C2375 606.3 2500 609.7 2625 607C2750 604.3 2875 595.7 2937.5 591.3L3000 587L3000 901L2937.5 901C2875 901 2750 901 2625 901C2500 901 2375 901 2250 901C2125 901 2000 901 1875 901C1750 901 1625 901 1500 901C1375 901 1250 901 1125 901C1000 901 875 901 750 901C625 901 500 901 375 901C250 901 125 901 62.5 901L0 901Z" fill="#359862"></path><path d="M0 734L62.5 733C125 732 250 730 375 723.3C500 716.7 625 705.3 750 695C875 684.7 1000 675.3 1125 677.5C1250 679.7 1375 693.3 1500 703.8C1625 714.3 1750 721.7 1875 719.8C2000 718 2125 707 2250 701.8C2375 696.7 2500 697.3 2625 694.5C2750 691.7 2875 685.3 2937.5 682.2L3000 679L3000 901L2937.5 901C2875 901 2750 901 2625 901C2500 901 2375 901 2250 901C2125 901 2000 901 1875 901C1750 901 1625 901 1500 901C1375 901 1250 901 1125 901C1000 901 875 901 750 901C625 901 500 901 375 901C250 901 125 901 62.5 901L0 901Z" fill="#388f5f"></path><path d="M0 695L62.5 697.7C125 700.3 250 705.7 375 715C500 724.3 625 737.7 750 747.7C875 757.7 1000 764.3 1125 764.8C1250 765.3 1375 759.7 1500 759.3C1625 759 1750 764 1875 763.3C2000 762.7 2125 756.3 2250 757.2C2375 758 2500 766 2625 758.5C2750 751 2875 728 2937.5 716.5L3000 705L3000 901L2937.5 901C2875 901 2750 901 2625 901C2500 901 2375 901 2250 901C2125 901 2000 901 1875 901C1750 901 1625 901 1500 901C1375 901 1250 901 1125 901C1000 901 875 901 750 901C625 901 500 901 375 901C250 901 125 901 62.5 901L0 901Z" fill="#3a875d"></path><path d="M0 778L62.5 777.8C125 777.7 250 777.3 375 778.5C500 779.7 625 782.3 750 788.8C875 795.3 1000 805.7 1125 805.3C1250 805 1375 794 1500 782.5C1625 771 1750 759 1875 766.2C2000 773.3 2125 799.7 2250 805.8C2375 812 2500 798 2625 789.8C2750 781.7 2875 779.3 2937.5 778.2L3000 777L3000 901L2937.5 901C2875 901 2750 901 2625 901C2500 901 2375 901 2250 901C2125 901 2000 901 1875 901C1750 901 1625 901 1500 901C1375 901 1250 901 1125 901C1000 901 875 901 750 901C625 901 500 901 375 901C250 901 125 901 62.5 901L0 901Z" fill="#3c7e5a"></path><path d="M0 837L62.5 831.5C125 826 250 815 375 814C500 813 625 822 750 830.7C875 839.3 1000 847.7 1125 851.2C1250 854.7 1375 853.3 1500 847.2C1625 841 1750 830 1875 823.7C2000 817.3 2125 815.7 2250 819.2C2375 822.7 2500 831.3 2625 834.2C2750 837 2875 834 2937.5 832.5L3000 831L3000 901L2937.5 901C2875 901 2750 901 2625 901C2500 901 2375 901 2250 901C2125 901 2000 901 1875 901C1750 901 1625 901 1500 901C1375 901 1250 901 1125 901C1000 901 875 901 750 901C625 901 500 901 375 901C250 901 125 901 62.5 901L0 901Z" fill="#3e7557"></path></svg>